{"title":"Curb Your Enthusiasm - Season 2","uid":10678368,"size":8513610070,"categoryP":"video","categoryS":"tv_shows","magnet":"?xt=urn:btih:53453a08e1a1502f264f135ed3472fbcb76940d3&amp;dn=Curb+Your+Enthusiasm+-+Season+2&amp;tr=udp%3A%2F%2Ftracker.openbittorrent.com%3A80&amp;tr=udp%3A%2F%2Fopen.demonii.com%3A1337&amp;tr=udp%3A%2F%2Ftracker.coppersurfer.tk%3A6969&amp;tr=udp%3A%2F%2Fexodus.desync.com%3A6969","seeders":18,"leechers":7,"uploader":"Isaac09","files":-1,"time":1406995531,"description":"Curb Your Enthusiasm: Season 2\n\nCreator: Larry David\nWriters: Larry David, Alec Berg\nStars:   Larry David, Cheryl Hines, Jeff Garlin, Susie Essman\n    &lt;a href=&quot;\nhttp://www.imdb.com/title/tt0264235/&quot; rel=&quot;nofollow&quot; target=&quot;_NEW&quot;&gt;\nhttp://www.imdb.com/title/tt0264235/&lt;/a&gt;\n\nHe's got it all: a loving wife, good friends, a successful career, a great home...what could possibly go wrong for Larry David? Seinfeld co-creator Larry David stars as himself in this hilarious, off-kilter comedy series that presents an unflinching, self-deprecating depiction of his life.\n\nRUNTIME.......: 28 Minutes\nFRAMERATE.....: 25 fps\nBITRATE.......: 3.7 Mbps\nRESOLUTION....: 720x576\nSOURCE........: Season 2 DVD's - PAL\nGENRE.........: Comedy\n\nAUDIO 1.......: English AC3 @ 192Kbps\nSUBTITLES.....: English, French, Dutch, Arabic, Greek\n\n\n\n\n\n\nGeneral\nUnique ID                                : 272534775894979551440226031692903985373 (0xCD0849E0447B4E784414BDBF0CC5B0DD)\nComplete name                            : C:UsersIsaacDownloadsCurb Your EnthusiasmSeason 2Curb Your Enthusiasm - 2x01 - The Car Salesman.mkv\nFormat                                   : Matroska\nFormat version                           : Version 2\nFile size                                : 853 MiB\nDuration                                 : 29mn 46s\nOverall bit rate mode                    : Variable\nOverall bit rate                         : 4 004 Kbps\nEncoded date                             : UTC 2014-08-02 01:34:16\nWriting application                      : MakeMKV v1.8.11 win(x64-release)\nWriting library                          : libmakemkv v1.8.11 (1.3.0/1.4.1) win(x64-release)\n\nVideo\nID                                       : 1\nFormat                                   : MPEG Video\nFormat version                           : Version 2\nFormat profile                           : Main@Main\nFormat settings, BVOP                    : No\nFormat settings, Matrix                  : Default\nCodec ID                                 : V_MPEG2\nCodec ID/Info                            : MPEG 1 or 2 Video\nDuration                                 : 29mn 46s\nBit rate mode                            : Variable\nBit rate                                 : 3 733 Kbps\nMaximum bit rate                         : 7 800 Kbps\nWidth                                    : 720 pixels\nHeight                                   : 576 pixels\nDisplay aspect ratio                     : 4:3\nFrame rate mode                          : Constant\nFrame rate                               : 25.000 fps\nStandard                                 : PAL\nColor space                              : YUV\nChroma subsampling                       : 4:2:0\nBit depth                                : 8 bits\nScan type                                : Interlaced\nScan order                               : Top Field First\nCompression mode                         : Lossy\nBits/(Pixel*Frame)                       : 0.360\nTime code of first frame                 : 00:59:58:00\nTime code source                         : Group of pictures header\nStream size                              : 795 MiB (93%)\nLanguage                                 : English\nDefault                                  : No\nForced                                   : No\nColor primaries                          : BT.601 PAL\nTransfer characteristics                 : BT.470 System B, BT.470 System G\nMatrix coefficients                      : BT.601\n\nAudio\nID                                       : 2\nFormat                                   : AC-3\nFormat/Info                              : Audio Coding 3\nFormat profile                           : Dolby Digital\nMode extension                           : CM (complete main)\nFormat settings, Endianness              : Big\nCodec ID                                 : A_AC3\nDuration                                 : 29mn 46s\nBit rate mode                            : Constant\nBit rate                                 : 192 Kbps\nChannel(s)                               : 2 channels\nChannel positions                        : Front: L R\nSampling rate                            : 48.0 KHz\nBit depth                                : 16 bits\nCompression mode                         : Lossy\nStream size                              : 40.9 MiB (5%)\nTitle                                    : Stereo\nLanguage                                 : English\nDefault                                  : Yes\nForced                                   : No\n\nText #1\nID                                       : 3\nFormat                                   : VobSub\nCodec ID                                 : S_VOBSUB\nCodec ID/Info                            : The same subtitle format used on DVDs\nLanguage                                 : English\nDefault                                  : Yes\nForced                                   : No\n\nText #2\nID                                       : 4\nFormat                                   : VobSub\nCodec ID                                 : S_VOBSUB\nCodec ID/Info                            : The same subtitle format used on DVDs\nLanguage                                 : French\nDefault                                  : No\nForced                                   : No\n\nText #3\nID                                       : 5\nFormat                                   : VobSub\nCodec ID                                 : S_VOBSUB\nCodec ID/Info                            : The same subtitle format used on DVDs\nLanguage                                 : Dutch\nDefault                                  : No\nForced                                   : No\n\nText #4\nID                                       : 6\nFormat                                   : VobSub\nCodec ID                                 : S_VOBSUB\nCodec ID/Info                            : The same subtitle format used on DVDs\nLanguage                                 : Arabic\nDefault                                  : No\nForced                                   : No\n\nText #5\nID                                       : 7\nFormat                                   : VobSub\nCodec ID                                 : S_VOBSUB\nCodec ID/Info                            : The same subtitle format used on DVDs\nLanguage                                 : iw\nDefault                                  : No\nForced                                   : No\n\nText #6\nID                                       : 8\nFormat                                   : VobSub\nCodec ID                                 : S_VOBSUB\nCodec ID/Info                            : The same subtitle format used on DVDs\nLanguage                                 : Greek\nDefault                                  : No\nForced                                   : No\n\nText #7\nID                                       : 9\nFormat                                   : VobSub\nCodec ID                                 : S_VOBSUB\nCodec ID/Info                            : The same subtitle format used on DVDs\nLanguage                                 : English\nDefault                                  : No\nForced                                   : No\n\n","torrent":{"xt":"urn:btih:53453a08e1a1502f264f135ed3472fbcb76940d3","amp;dn":"Curb+Your+Enthusiasm+-+Season+2","amp;tr":["udp%3A%2F%2Ftracker.openbittorrent.com%3A80","udp%3A%2F%2Fopen.demonii.com%3A1337","udp%3A%2F%2Ftracker.coppersurfer.tk%3A6969","udp%3A%2F%2Fexodus.desync.com%3A6969"],"infoHash":"53453a08e1a1502f264f135ed3472fbcb76940d3","infoHashBuffer":{"type":"Buffer","data":[83,69,58,8,225,161,80,47,38,79,19,94,211,71,47,188,183,105,64,211]},"announce":[],"urlList":[]}}